<svg id="Page1" xmlns="http://www.w3.org/2000/svg" viewBox="0 0 9.05 9.06"><defs><style>.cls-1{fill:#5c2d91;}.cls-2{fill:#fff;}</style></defs><title>buttonPurple</title><circle class="cls-1" cx="4.53" cy="4.53" r="4.4"/><path class="cls-2" d="M4.45-12.9A4.27,4.27,0,0,1,8.72-8.62,4.28,4.28,0,0,1,4.45-4.34,4.28,4.28,0,0,1,.17-8.62,4.28,4.28,0,0,1,4.45-12.9m0-.25A4.53,4.53,0,0,0-.08-8.62,4.53,4.53,0,0,0,4.45-4.09,4.53,4.53,0,0,0,9-8.62a4.53,4.53,0,0,0-4.53-4.53h0Z" transform="translate(0.08 13.15)"/></svg>