<svg id="Page1" xmlns="http://www.w3.org/2000/svg" viewBox="0 0 9.05 9.06"><defs><style>.cls-1{fill:#a0262a;}.cls-2{fill:#fff;}</style></defs><title>buttonRed</title><circle class="cls-1" cx="4.53" cy="4.53" r="4.4"/><path class="cls-2" d="M170.51-12.9a4.27,4.27,0,0,1,4.28,4.28,4.28,4.28,0,0,1-4.28,4.28,4.28,4.28,0,0,1-4.28-4.28,4.28,4.28,0,0,1,4.28-4.28m0-.25A4.53,4.53,0,0,0,166-8.62a4.53,4.53,0,0,0,4.53,4.53A4.53,4.53,0,0,0,175-8.62a4.53,4.53,0,0,0-4.53-4.53h0Z" transform="translate(-165.98 13.15)"/></svg>