<svg id="Page1" xmlns="http://www.w3.org/2000/svg" xmlns:xlink="http://www.w3.org/1999/xlink" viewBox="0 0 240.68 180.01"><defs><style>.cls-1,.cls-10,.cls-7,.cls-9{fill:none;}.cls-2{fill:#231f20;}.cls-3{fill:#fff;}.cls-4{clip-path:url(#clip-path);}.cls-5{clip-path:url(#clip-path-2);}.Sea-2{fill:#b0daee;}.cls-6{fill:#f1e5e0;}.cls-7,.cls-9{stroke:#b2aaa2;stroke-linejoin:round;}.cls-7{stroke-width:0.4px;}.cls-8{fill:#abe1fa;}.cls-9{stroke-linecap:round;stroke-width:0.7px;}.cls-10{stroke:#231f20;stroke-width:0.3px;}</style><clipPath id="clip-path"><rect class="cls-1" x="-1.45" width="243.22" height="180.01"/></clipPath><clipPath id="clip-path-2"><polygon class="cls-1" points="240.68 236.21 -1.45 235.6 -1.45 -6.97 240.68 -6.36 240.68 236.21"/></clipPath><symbol id="Capital_2" data-name="Capital 2" viewBox="0 0 4.82 4.82"><g id="capitale"><rect class="cls-2" x="0.12" y="0.12" width="4.57" height="4.57"/><path class="cls-3" d="M4.57,0.25V4.57H0.25V0.25H4.57M4.82,0H0V4.82H4.82V0h0Z"/></g></symbol></defs><title>Iran_1</title><g class="cls-4"><g class="cls-5"><path class="Sea-2" d="M458.8,162.57Q457.59,26.29,457.6-110H-261.56V439.13H463Q459.91,300.86,458.8,162.57Z"/><polygon class="cls-6" points="128.48 162.4 129.24 162.35 128.26 160.25 126.64 161.7 126.91 162.29 125.45 162.35 123.83 166.79 124.55 167.54 123.9 169.76 124.19 170.26 124.06 172.72 125.14 172.87 126.37 168.78 126.66 167.49 128.47 165.93 128.77 164.96 128.86 163.32 127.99 162.99 128.86 162.62 128.48 162.4"/><polygon class="cls-6" points="33.17 9.46 31.43 8.76 31.85 7.32 31.12 6.46 29.24 6.19 27.5 4.34 27.18 1.33 27.02 -0.11 21.22 -4.08 21.2 -6.66 19.88 -8.23 17.29 -8.21 17.4 -11.8 15.95 -12.07 15.94 -13.65 11.61 -14.04 6.55 -15.43 1.51 -14.67 -4.11 -14.91 -2.65 -13.2 0.53 -11.5 3.29 -9.51 3.62 -5.21 2.78 -2.62 4.11 1.68 7.15 2.51 9.88 1.48 11.79 5.2 13.96 6.18 15.97 5.02 18.73 7.43 21.46 6.55 24.51 8.96 24.68 11.26 25.99 13.11 29.17 14.24 29.7 16.74 31.34 14.79 34.06 12.61 32.31 10.62 33.17 9.46"/><polygon class="cls-6" points="280.65 9.84 280.2 8.12 278.31 6.27 275.71 6.44 272.13 8.34 263.19 7.7 257.83 5.45 254.82 7.2 252.35 5.79 253.48 2.9 256.08 3.6 257.67 3.58 256.79 2.44 256.93 1.29 259.8 -0.03 264.85 0.51 268.02 0.62 268.87 -1.11 265.26 -1.94 264.23 -3.8 265.19 -5.42 266.7 -6.51 267.76 -7.92 267.21 -9.32 267.19 -11.26 265.9 -10.92 264.29 -9.83 261.07 -7.21 258.48 -5.79 257.18 -6 256.63 -7.07 255.44 -6.84 254.7 -5.11 255.68 -4.47 255.16 -2.53 254.19 -2.42 253.21 -3.16 250.42 -0.33 249.58 2.47 248.41 5.07 246.04 6.06 245.74 8.76 244.24 8.99 242.61 8.68 240.45 9.23 240.36 10.42 239.07 11.29 239.62 13.12 241.68 13.42 242.88 15.13 244.29 15.02 246.25 16.61 245.19 19.64 245.32 21.9 247.29 24.14 246.46 27.38 244.44 31.6 241.78 36.47 243.85 38.32 249.89 36.26 253.64 36.22 256.68 37.2 258.65 32.59 263.7 32.25 265.27 30.52 265.82 28.07 266.81 25.91 266.8 24.47 269.8 21.86 272.69 22.98 274.87 23.54 275.17 25.11 274.45 25.98 274.77 28.71 276.77 27.11 277.5 28.39 277.4 32.56 275.98 35.45 276.53 39.56 277.84 40.7 281.59 40.66 289.98 36.47 297.6 31.37 297.32 32.67 298.35 34.53 306.81 32.72 308.83 32.99 311 33.69 311.42 32.4 312.26 29.37 311.38 27.08 310.34 24.8 310.76 23.07 308.57 20.21 308.12 18.35 306.53 17.65 303.94 17.82 302.36 19.41 299.9 18 300.47 17.27 299.86 13.4 299.24 8.67 296.06 7.69 286.56 9.07 280.65 9.84"/><polygon class="cls-6" points="44.98 109.54 44.08 108.05 41.7 108.21 41.08 104.67 43.23 99.45 41.2 95.52 33.48 88.9 30.22 88.65 27.48 86.99 26.66 83.99 21.41 76.78 20.48 69.26 22.59 66.74 22.55 64.91 27.65 60.91 27.68 57.68 25.35 54.93 26.91 52.2 25.16 51.27 23.01 52.19 20.37 50.31 18.86 50.23 17.43 48.97 16.48 41.02 11.57 34.02 7.51 36.27 5.08 34.28 1.63 34.68 -1.16 35.71 -3.98 35.13 -9.96 38.71 -19.49 47.76 -17.81 55.05 -21.42 67.3 -46.02 83.99 -44.89 90.08 -41.8 98.79 -24.34 100.34 14.54 131.13 26.89 132.03 30.2 130.34 34.55 126.58 38.34 121.75 41.33 120.29 45.04 121.6 47.3 121.12 49.72 122.9 50.46 122.02 50.21 120.73 45.25 116.75 44.98 109.54"/><polygon class="cls-6" points="115.93 199.51 118.89 206.12 115.07 228.29 85.37 239.63 92.84 263.91 97.89 262.08 103.15 260.66 105.81 258.66 112.19 258.63 114.9 258.78 117.41 255.17 116.3 253.58 118.11 252.67 118.17 250.63 125.4 249.71 128.5 248.35 129.62 245.09 130.82 240.86 135.85 238.49 141.78 237.71 141.53 235.88 140.97 235.14 141.47 233.19 140.14 231.93 140.61 228.79 143.22 224.64 144.65 221.26 145.87 222.53 146.33 223.71 147.63 223.57 148.89 221.93 149.38 219.87 151 219.62 151.27 217.13 153.38 215.14 156.67 212.27 157.04 209.35 160.21 206.26 160.77 202.37 158.66 200.05 155.94 199.14 154.69 196.58 153.26 195.43 152.65 192.54 147.19 190.18 140.87 188.06 137.06 187.07 134.08 184.44 132.99 183.93 129.09 179.28 127.73 176.08 115.81 194.34 115.93 199.51"/><polygon class="cls-6" points="71.22 166.17 71.27 165.2 71.44 164.02 71.11 162.83 70.19 162.24 69.76 163.21 70.3 163.69 69.87 164.45 69.98 165.25 70.79 165.31 70.63 166.28 71.22 166.17"/><polygon class="cls-6" points="128.48 162.4 129.24 162.35 128.26 160.25 126.64 161.7 126.91 162.29 125.45 162.35 123.83 166.79 124.55 167.54 123.9 169.76 124.19 170.26 124.06 172.72 125.14 172.87 126.37 168.78 126.66 167.49 128.47 165.93 128.77 164.96 128.86 163.32 127.99 162.99 128.86 162.62 128.48 162.4"/><polygon class="cls-6" points="33.17 9.46 31.43 8.76 31.85 7.32 31.12 6.46 29.24 6.19 27.5 4.34 27.18 1.33 27.02 -0.11 21.22 -4.08 21.2 -6.66 19.88 -8.23 17.29 -8.21 17.4 -11.8 15.95 -12.07 15.94 -13.65 11.61 -14.04 6.55 -15.43 1.51 -14.67 -4.11 -14.91 -2.65 -13.2 0.53 -11.5 3.29 -9.51 3.62 -5.21 2.78 -2.62 4.11 1.68 7.15 2.51 9.88 1.48 11.79 5.2 13.96 6.18 15.97 5.02 18.73 7.43 21.46 6.55 24.51 8.96 24.68 11.26 25.99 13.11 29.17 14.24 29.7 16.74 31.34 14.79 34.06 12.61 32.31 10.62 33.17 9.46"/><polygon class="cls-6" points="280.65 9.84 280.2 8.12 278.31 6.27 275.71 6.44 272.13 8.34 263.19 7.7 257.83 5.45 254.82 7.2 252.35 5.79 253.48 2.9 256.08 3.6 257.67 3.58 256.79 2.44 256.93 1.29 259.8 -0.03 264.85 0.51 268.02 0.62 268.87 -1.11 265.26 -1.94 264.23 -3.8 265.19 -5.42 266.7 -6.51 267.76 -7.92 267.21 -9.32 267.19 -11.26 265.9 -10.92 264.29 -9.83 261.07 -7.21 258.48 -5.79 257.18 -6 256.63 -7.07 255.44 -6.84 254.7 -5.11 255.68 -4.47 255.16 -2.53 254.19 -2.42 253.21 -3.16 250.42 -0.33 249.58 2.47 248.41 5.07 246.04 6.06 245.74 8.76 244.24 8.99 242.61 8.68 240.45 9.23 240.36 10.42 239.07 11.29 239.62 13.12 241.68 13.42 242.88 15.13 244.29 15.02 246.25 16.61 245.19 19.64 245.32 21.9 247.29 24.14 246.46 27.38 244.44 31.6 241.78 36.47 243.85 38.32 249.89 36.26 253.64 36.22 256.68 37.2 258.65 32.59 263.7 32.25 265.27 30.52 265.82 28.07 266.81 25.91 266.8 24.47 269.8 21.86 272.69 22.98 274.87 23.54 275.17 25.11 274.45 25.98 274.77 28.71 276.77 27.11 277.5 28.39 277.4 32.56 275.98 35.45 276.53 39.56 277.84 40.7 281.59 40.66 289.98 36.47 297.6 31.37 297.32 32.67 298.35 34.53 306.81 32.72 308.83 32.99 311 33.69 311.42 32.4 312.26 29.37 311.38 27.08 310.34 24.8 310.76 23.07 308.57 20.21 308.12 18.35 306.53 17.65 303.94 17.82 302.36 19.41 299.9 18 300.47 17.27 299.86 13.4 299.24 8.67 296.06 7.69 286.56 9.07 280.65 9.84"/><polygon class="cls-6" points="44.98 109.54 44.08 108.05 41.7 108.21 41.08 104.67 43.23 99.45 41.2 95.52 33.48 88.9 30.22 88.65 27.48 86.99 26.66 83.99 21.41 76.78 20.48 69.26 22.59 66.74 22.55 64.91 27.65 60.91 27.68 57.68 25.35 54.93 26.91 52.2 25.16 51.27 23.01 52.19 20.37 50.31 18.86 50.23 17.43 48.97 16.48 41.02 11.57 34.02 7.51 36.27 5.08 34.28 1.63 34.68 -1.16 35.71 -3.98 35.13 -9.96 38.71 -19.49 47.76 -17.81 55.05 -21.42 67.3 -46.02 83.99 -44.89 90.08 -41.8 98.79 -24.34 100.34 14.54 131.13 26.89 132.03 30.2 130.34 34.55 126.58 38.34 121.75 41.33 120.29 45.04 121.6 47.3 121.12 49.72 122.9 50.46 122.02 50.21 120.73 45.25 116.75 44.98 109.54"/><polygon class="cls-6" points="115.93 199.51 118.89 206.12 115.07 228.29 85.37 239.63 92.84 263.91 97.89 262.08 103.15 260.66 105.81 258.66 112.19 258.63 114.9 258.78 117.41 255.17 116.3 253.58 118.11 252.67 118.17 250.63 125.4 249.71 128.5 248.35 129.62 245.09 130.82 240.86 135.85 238.49 141.78 237.71 141.53 235.88 140.97 235.14 141.47 233.19 140.14 231.93 140.61 228.79 143.22 224.64 144.65 221.26 145.87 222.53 146.33 223.71 147.63 223.57 148.89 221.93 149.38 219.87 151 219.62 151.27 217.13 153.38 215.14 156.67 212.27 157.04 209.35 160.21 206.26 160.77 202.37 158.66 200.05 155.94 199.14 154.69 196.58 153.26 195.43 152.65 192.54 147.19 190.18 140.87 188.06 137.06 187.07 134.08 184.44 132.99 183.93 129.09 179.28 127.73 176.08 115.81 194.34 115.93 199.51"/><polygon class="cls-6" points="71.22 166.17 71.27 165.2 71.44 164.02 71.11 162.83 70.19 162.24 69.76 163.21 70.3 163.69 69.87 164.45 69.98 165.25 70.79 165.31 70.63 166.28 71.22 166.17"/><polygon class="cls-6" points="22.96 -19.03 23.26 -17.31 25.43 -16.03 26.02 -15.03 28.05 -13.47 26.48 -12.17 25.93 -10 24.04 -11.42 21.14 -12.26 17.95 -15.1 15.94 -13.65 15.95 -12.07 17.4 -11.8 17.29 -8.21 19.88 -8.23 21.2 -6.66 21.22 -4.08 27.02 -0.11 27.18 1.33 27.5 4.34 29.24 6.19 31.12 6.46 31.85 7.32 31.43 8.76 33.17 9.46 32.31 10.62 34.06 12.61 37.51 11.29 42.51 6.07 45.82 5.75 48.16 9.18 46.31 12.21 47.77 14.35 44.92 17.97 48.71 22.53 50.29 21.51 51.89 22.64 54.29 21.94 54.26 15.26 55.33 15.18 55.28 16.91 56.67 17.59 56.95 15.12 56.17 11.54 57.3 9.95 57.64 9.32 58.27 10.2 58.61 9.23 57.91 7.38 58.31 4.38 60.23 1.2 60.69 0.13 61.91 -1.13 64.08 -1.4 64.93 -0.84 66.44 -0.58 67.39 0.3 67.15 1.16 67.8 1.18 68.03 0.64 66.79 -1.65 66.37 -1.99 64.25 -3.76 62.62 -3.27 61.86 -3.29 60.82 -4.93 59.06 -7.89 56.82 -9.24 56.06 -13.03 55.16 -16.18 53.71 -18.37 52 -19.27 49.72 -21.32 48.33 -18.68 46.51 -14.07 40.6 -13.3 34.48 -19.99 29.55 -22.68 25.81 -22.79 25.54 -20.77 22.96 -19.03"/><polygon class="cls-6" points="25.99 13.11 24.68 11.26 24.51 8.96 21.46 6.55 18.73 7.43 15.97 5.02 13.96 6.18 15.01 10.34 19.66 15.18 25.88 16.85 29.7 16.74 29.17 14.24 25.99 13.11"/><path class="cls-6" d="M92.21-9.73l0.41,1.09-0.67.84L91.79-6.18l0.19,1-1.42.29L89-2.37l-0.24.85,0.92,2.29L90.91,3l0.58,2.71L92,6.75,93.4,7l-0.84-.88L92.8,4.83l0.68-1.17,2,0.59,2.26,0.49a0.8,0.8,0,0,1,.86,0,5.94,5.94,0,0,1,.28,1.62L97.37,8l-0.8,1.6,1.06,1-0.12.32-1.18-.36-0.2-.65-0.45.53,0.07,1.4,0.61,1.63,1.18,0.24L97,12.59l0.78-.95,0.54-.1,0,1.4,0.53,0.44,0.39,1.52,1.39,0.57,0.77-.63,0.94,1.32-0.52,3.22-1.51,3.95L100.51,29l0.25,2.81,1.49,4,2.08-2.06,4.54-.15,0.65,0.53,1.18-1,1.36-4.75,7.32-3.19,5.1,1.36,3-2.72,3.78-.79L132,23.75l0.76,0.53,1.08-.76,2,0.85,1.09,1.39-0.53.76,3.15,1.8,2.49,0,3.59,3L150,31.34l2.91-.78,2.5,1.7L157.11,36l5,2.32,2.09,3.54L170.48,42l2.07,1.38,0,2.15-0.4,3.67,0.75,4.89,1.8,2.2,6.5,1.45,2.38-.34,0.88,2v1.19l2.59-.78L190,58.56l1.81-3.79L192,51.54l9.6-1.92,4.19-3.7L208.1,42l0.7-5.93,7.77,0L220.24,34l4.44,0.5,7.18,0.37-0.47-4.45-1.9-2.28-9.26-3.37-12.81-7-10.14-5.37L191,7.89l-6.28-8.7-0.89-2.58-3.94-4.85-0.46-3.16-3.06-3.42-1.58.16-0.71,1.44-1.87.88-1.59-1-2,.31-1.75-1.71L164.58-15l-4.26-8.86-2-2.14-4.93-2.83-2-3-3.6,0-2.32-1.7-0.86.58L146-30.62l0.88,1.57L145-29.18l-2-1.71-1.15.15,0.45,1.58-0.42,1.73-1.73.3-1-.42-5.88,3.07-0.83,3.31L132-17.43l1.6,2-0.29.58L131.12-16l-7.21-.37-6.36-1.23-1.89-1.85-6-9-7.22-1.08-2,1.17L90.52-25.1l-2.35,4L87.7-19.32l0,1.4,0.49,2.06L89.42-15l0.95,1.1,0.19,1,1.65,3.17h0Z"/><polygon class="cls-6" points="42.14 136.75 41.45 135.37 38.98 131.33 30.2 130.34 26.89 132.03 14.54 131.13 -24.34 100.34 -41.8 98.79 -53.26 103.57 -60.04 105.02 -60.2 107.72 -57.29 112.07 -54.06 115.76 -51.86 117.44 -54.88 122.57 -61.29 126.27 -65.72 131.33 -68.07 132.56 -77.85 130.31 -80.92 129.56 -80.92 129.56 -82.94 134.73 -82.44 137.74 -83.76 141.53 -85.02 143.5 -84.56 144.46 -81.66 143.86 -78.92 145.09 -76.22 149.88 -76.19 151.28 -73.76 153.38 -72.5 156.47 -67.84 161.75 -66.89 165.18 -64.7 166.31 -65.3 168.59 -63.11 169.83 -60.55 173.01 -58.15 178.56 -59.77 178.81 -59.95 180.32 -56.97 182.95 -56.6 184.77 -53.01 185.66 -49.8 188.71 -46.17 191.75 -43.52 198.59 -42.92 201.27 -41.04 203.38 -41.47 208.34 -42.64 208.91 -41.16 212.1 -40 215.42 -40.16 217.9 -38.33 222.28 -34.79 225.75 -30.41 228.02 -26.9 230.21 -24.76 233.93 -22.78 235.72 -21.13 241.71 -18.21 246.06 -16.5 250.12 -13.39 253.39 -10.76 255.16 -10.48 257.95 -8.58 260.5 -7.48 261.44 -5.65 265.82 -2.57 263.38 -2.86 260.15 -1.29 257.74 -1.35 255.38 1.97 253.58 5.59 255.87 8.63 256.55 18.7 255.39 25.49 274.81 47.1 254.82 85.37 239.63 115.07 228.29 118.89 206.12 115.93 199.51 110.57 201.89 90.48 198.47 79.6 186 79.44 183.63 80.34 180.7 78.52 181.28 78.69 179.23 76.54 178.38 75.38 178.88 73.44 177.22 72.54 174.52 70.89 174.02 70.73 171.66 69.2 171.05 67.29 167.64 67.03 166.03 67 163.91 67.92 163.96 68.04 162.78 66.68 160.11 66.58 158.68 67.71 159.17 66.52 157.75 63.32 155.13 60.58 153.46 59.07 153.39 58.36 150.82 58.44 149.63 56.13 148.07 55.11 146.05 52.82 145.13 51.31 140.53 50.82 137.96 48.82 135.85 45.05 136.36 42.14 136.75"/><polygon class="cls-6" points="251.26 182.09 257.08 181.1 261.95 181.42 264.33 181.37 266.69 180.45 270.31 182.52 272.44 181.08 273.28 180.31 271.85 179.15 273.99 178.35 272.97 175.9 271.44 170.43 268.86 166.4 264.62 165.42 264 162.42 264.47 158.85 262.02 156 258.51 153.71 258.1 150.05 262.02 146.41 263.7 144.11 265.25 140.84 267.05 139.4 269.38 141.72 271.7 144.14 274.7 142.67 279.98 142.12 281.69 141.01 282.28 138.41 283.87 136.97 283.93 134.92 287.54 131.72 290.42 129.93 294.35 126.82 295.33 122.6 298.58 118 301.79 116.53 301.34 111.05 307.5 105.73 307.54 102.82 306.75 101.55 306.71 99.72 315.56 94.24 315.19 92.42 314.42 91.57 309.52 90.39 308.27 87.51 304.23 85.99 301.67 68.38 303.65 65.1 299.21 63.99 302.72 59.12 301.64 52.9 299.48 48.63 300.29 44.78 294.19 39.13 290.52 39.54 286.45 41.46 282.93 43.7 279.96 46.03 277.17 47.17 276.6 50.74 278.41 53.93 278.7 57.04 277.92 61.05 275.5 64.12 272.96 66.33 272.78 67.95 273.92 70.84 272.37 73.88 269.36 74.6 265.9 74.68 262.21 74.01 261.61 76.18 264.27 79.13 264.99 82.13 257.48 84.78 256.87 86.3 256.74 90.29 255.68 95.92 252.75 100.51 251.57 100.64 248.8 98.12 247 99.56 241.41 100.98 239.45 105.12 233.6 105.03 230.09 107.48 227.92 111.95 227.9 115.94 226.95 121.56 211.27 125.71 204.47 126.29 201.47 127.76 197.54 126.13 184.25 126.97 177.71 124.64 172.17 123.47 177.13 130.9 179.26 135.74 188.58 139.69 188.43 145.73 188.21 148.75 189.25 149.87 193.28 149.78 193.38 153.8 187.39 156.81 179.68 160.14 177.28 168.96 175.65 173.31 175.25 174.75 177.96 173.76 179.08 175.13 183.46 172.99 185.13 174.89 186.6 172.7 193.19 172.66 196.88 173.33 199.43 171.22 204.64 171.86 208.25 173.5 210.04 171.63 216.95 171.56 222.46 171.22 223.98 171.07 227.34 171.54 227.76 170.88 227.09 170.03 224.93 170.19 225.34 169.21 228.36 168.78 229.47 169.32 230.98 170.72 228.14 173.14 228.36 175.08 229.98 176.16 231.27 175.29 232.57 174.75 233.11 176.16 232.35 177.34 232.57 178.31 233.33 180.03 233.11 182.19 233.65 183.26 235.06 182.51 235.38 180.78 237 180.57 238.09 179.49 239.82 178.85 240.79 179.39 239.38 179.92 238.09 181.22 236.14 181.97 235.38 183.91 235.71 184.77 238.09 186.39 239.6 186.28 241.22 186.93 241.76 188.33 242.84 188.44 244.68 187.36 246.25 186.96 250.76 184.15 251.26 182.09"/><polygon class="cls-6" points="22.96 -19.03 23.26 -17.31 25.43 -16.03 26.02 -15.03 28.05 -13.47 26.48 -12.17 25.93 -10 24.04 -11.42 21.14 -12.26 17.95 -15.1 15.94 -13.65 15.95 -12.07 17.4 -11.8 17.29 -8.21 19.88 -8.23 21.2 -6.66 21.22 -4.08 27.02 -0.11 27.18 1.33 27.5 4.34 29.24 6.19 31.12 6.46 31.85 7.32 31.43 8.76 33.17 9.46 32.31 10.62 34.06 12.61 37.51 11.29 42.51 6.07 45.82 5.75 48.16 9.18 46.31 12.21 47.77 14.35 44.92 17.97 48.71 22.53 50.29 21.51 51.89 22.64 54.29 21.94 54.26 15.26 55.33 15.18 55.28 16.91 56.67 17.59 56.95 15.12 56.17 11.54 57.3 9.95 57.64 9.32 58.27 10.2 58.61 9.23 57.91 7.38 58.31 4.38 60.23 1.2 60.69 0.13 61.91 -1.13 64.08 -1.4 64.93 -0.84 66.44 -0.58 67.39 0.3 67.15 1.16 67.8 1.18 68.03 0.64 66.79 -1.65 66.37 -1.99 64.25 -3.76 62.62 -3.27 61.86 -3.29 60.82 -4.93 59.06 -7.89 56.82 -9.24 56.06 -13.03 55.16 -16.18 53.71 -18.37 52 -19.27 49.72 -21.32 48.33 -18.68 46.51 -14.07 40.6 -13.3 34.48 -19.99 29.55 -22.68 25.81 -22.79 25.54 -20.77 22.96 -19.03"/><polygon class="cls-6" points="25.99 13.11 24.68 11.26 24.51 8.96 21.46 6.55 18.73 7.43 15.97 5.02 13.96 6.18 15.01 10.34 19.66 15.18 25.88 16.85 29.7 16.74 29.17 14.24 25.99 13.11"/><path class="cls-6" d="M92.21-9.73l0.41,1.09-0.67.84L91.79-6.18l0.19,1-1.42.29L89-2.37l-0.24.85,0.92,2.29L90.91,3l0.58,2.71L92,6.75,93.4,7l-0.84-.88L92.8,4.83l0.68-1.17,2,0.59,2.26,0.49a0.8,0.8,0,0,1,.86,0,5.94,5.94,0,0,1,.28,1.62L97.37,8l-0.8,1.6,1.06,1-0.12.32-1.18-.36-0.2-.65-0.45.53,0.07,1.4,0.61,1.63,1.18,0.24L97,12.59l0.78-.95,0.54-.1,0,1.4,0.53,0.44,0.39,1.52,1.39,0.57,0.77-.63,0.94,1.32-0.52,3.22-1.51,3.95L100.51,29l0.25,2.81,1.49,4,2.08-2.06,4.54-.15,0.65,0.53,1.18-1,1.36-4.75,7.32-3.19,5.1,1.36,3-2.72,3.78-.79L132,23.75l0.76,0.53,1.08-.76,2,0.85,1.09,1.39-0.53.76,3.15,1.8,2.49,0,3.59,3L150,31.34l2.91-.78,2.5,1.7L157.11,36l5,2.32,2.09,3.54L170.48,42l2.07,1.38,0,2.15-0.4,3.67,0.75,4.89,1.8,2.2,6.5,1.45,2.38-.34,0.88,2v1.19l2.59-.78L190,58.56l1.81-3.79L192,51.54l9.6-1.92,4.19-3.7L208.1,42l0.7-5.93,7.77,0L220.24,34l4.44,0.5,7.18,0.37-0.47-4.45-1.9-2.28-9.26-3.37-12.81-7-10.14-5.37L191,7.89l-6.28-8.7-0.89-2.58-3.94-4.85-0.46-3.16-3.06-3.42-1.58.16-0.71,1.44-1.87.88-1.59-1-2,.31-1.75-1.71L164.58-15l-4.26-8.86-2-2.14-4.93-2.83-2-3-3.6,0-2.32-1.7-0.86.58L146-30.62l0.88,1.57L145-29.18l-2-1.71-1.15.15,0.45,1.58-0.42,1.73-1.73.3-1-.42-5.88,3.07-0.83,3.31L132-17.43l1.6,2-0.29.58L131.12-16l-7.21-.37-6.36-1.23-1.89-1.85-6-9-7.22-1.08-2,1.17L90.52-25.1l-2.35,4L87.7-19.32l0,1.4,0.49,2.06L89.42-15l0.95,1.1,0.19,1,1.65,3.17h0Z"/><polygon class="cls-6" points="42.14 136.75 41.45 135.37 38.98 131.33 30.2 130.34 26.89 132.03 14.54 131.13 -24.34 100.34 -41.8 98.79 -53.26 103.57 -60.04 105.02 -60.2 107.72 -57.29 112.07 -54.06 115.76 -51.86 117.44 -54.88 122.57 -61.29 126.27 -65.72 131.33 -68.07 132.56 -77.85 130.31 -80.92 129.56 -80.92 129.56 -82.94 134.73 -82.44 137.74 -83.76 141.53 -85.02 143.5 -84.56 144.46 -81.66 143.86 -78.92 145.09 -76.22 149.88 -76.19 151.28 -73.76 153.38 -72.5 156.47 -67.84 161.75 -66.89 165.18 -64.7 166.31 -65.3 168.59 -63.11 169.83 -60.55 173.01 -58.15 178.56 -59.77 178.81 -59.95 180.32 -56.97 182.95 -56.6 184.77 -53.01 185.66 -49.8 188.71 -46.17 191.75 -43.52 198.59 -42.92 201.27 -41.04 203.38 -41.47 208.34 -42.64 208.91 -41.16 212.1 -40 215.42 -40.16 217.9 -38.33 222.28 -34.79 225.75 -30.41 228.02 -26.9 230.21 -24.76 233.93 -22.78 235.72 -21.13 241.71 -18.21 246.06 -16.5 250.12 -13.39 253.39 -10.76 255.16 -10.48 257.95 -8.58 260.5 -7.48 261.44 -5.65 265.82 -2.57 263.38 -2.86 260.15 -1.29 257.74 -1.35 255.38 1.97 253.58 5.59 255.87 8.63 256.55 18.7 255.39 25.49 274.81 47.1 254.82 85.37 239.63 115.07 228.29 118.89 206.12 115.93 199.51 110.57 201.89 90.48 198.47 79.6 186 79.44 183.63 80.34 180.7 78.52 181.28 78.69 179.23 76.54 178.38 75.38 178.88 73.44 177.22 72.54 174.52 70.89 174.02 70.73 171.66 69.2 171.05 67.29 167.64 67.03 166.03 67 163.91 67.92 163.96 68.04 162.78 66.68 160.11 66.58 158.68 67.71 159.17 66.52 157.75 63.32 155.13 60.58 153.46 59.07 153.39 58.36 150.82 58.44 149.63 56.13 148.07 55.11 146.05 52.82 145.13 51.31 140.53 50.82 137.96 48.82 135.85 45.05 136.36 42.14 136.75"/><polygon class="cls-6" points="251.26 182.09 257.08 181.1 261.95 181.42 264.33 181.37 266.69 180.45 270.31 182.52 272.44 181.08 273.28 180.31 271.85 179.15 273.99 178.35 272.97 175.9 271.44 170.43 268.86 166.4 264.62 165.42 264 162.42 264.47 158.85 262.02 156 258.51 153.71 258.1 150.05 262.02 146.41 263.7 144.11 265.25 140.84 267.05 139.4 269.38 141.72 271.7 144.14 274.7 142.67 279.98 142.12 281.69 141.01 282.28 138.41 283.87 136.97 283.93 134.92 287.54 131.72 290.42 129.93 294.35 126.82 295.33 122.6 298.58 118 301.79 116.53 301.34 111.05 307.5 105.73 307.54 102.82 306.75 101.55 306.71 99.72 315.56 94.24 315.19 92.42 314.42 91.57 309.52 90.39 308.27 87.51 304.23 85.99 301.67 68.38 303.65 65.1 299.21 63.99 302.72 59.12 301.64 52.9 299.48 48.63 300.29 44.78 294.19 39.13 290.52 39.54 286.45 41.46 282.93 43.7 279.96 46.03 277.17 47.17 276.6 50.74 278.41 53.93 278.7 57.04 277.92 61.05 275.5 64.12 272.96 66.33 272.78 67.95 273.92 70.84 272.37 73.88 269.36 74.6 265.9 74.68 262.21 74.01 261.61 76.18 264.27 79.13 264.99 82.13 257.48 84.78 256.87 86.3 256.74 90.29 255.68 95.92 252.75 100.51 251.57 100.64 248.8 98.12 247 99.56 241.41 100.98 239.45 105.12 233.6 105.03 230.09 107.48 227.92 111.95 227.9 115.94 226.95 121.56 211.27 125.71 204.47 126.29 201.47 127.76 197.54 126.13 184.25 126.97 177.71 124.64 172.17 123.47 177.13 130.9 179.26 135.74 188.58 139.69 188.43 145.73 188.21 148.75 189.25 149.87 193.28 149.78 193.38 153.8 187.39 156.81 179.68 160.14 177.28 168.96 175.65 173.31 175.25 174.75 177.96 173.76 179.08 175.13 183.46 172.99 185.13 174.89 186.6 172.7 193.19 172.66 196.88 173.33 199.43 171.22 204.64 171.86 208.25 173.5 210.04 171.63 216.95 171.56 222.46 171.22 223.98 171.07 227.34 171.54 227.76 170.88 227.09 170.03 224.93 170.19 225.34 169.21 228.36 168.78 229.47 169.32 230.98 170.72 228.14 173.14 228.36 175.08 229.98 176.16 231.27 175.29 232.57 174.75 233.11 176.16 232.35 177.34 232.57 178.31 233.33 180.03 233.11 182.19 233.65 183.26 235.06 182.51 235.38 180.78 237 180.57 238.09 179.49 239.82 178.85 240.79 179.39 239.38 179.92 238.09 181.22 236.14 181.97 235.38 183.91 235.71 184.77 238.09 186.39 239.6 186.28 241.22 186.93 241.76 188.33 242.84 188.44 244.68 187.36 246.25 186.96 250.76 184.15 251.26 182.09"/><polygon class="cls-6" points="124.06 172.72 124.19 170.26 123.9 169.76 124.55 167.54 123.83 166.79 121.82 168.46 119.78 169.15 114.51 175.41 113.25 177.05 108.58 180.71 108.29 182.55 108.34 184.6 107.02 183.55 104.35 185.22 91.04 184.77 89.68 186.74 85.36 187.27 83.82 186.01 82.91 183.99 81.95 184.87 80.84 183.28 79.44 183.63 79.44 183.63 79.6 186 90.48 198.47 110.57 201.89 115.93 199.51 115.81 194.34 127.73 176.08 127.46 169.41 126.37 168.78 125.14 172.87 124.06 172.72"/><polygon class="cls-6" points="306.81 32.72 298.35 34.53 297.32 32.67 297.6 31.37 289.98 36.47 281.59 40.66 277.84 40.7 276.53 39.56 275.98 35.45 277.4 32.56 277.5 28.39 276.77 27.11 274.77 28.71 274.45 25.98 275.17 25.11 274.87 23.54 272.69 22.98 269.8 21.86 266.8 24.47 266.81 25.91 265.82 28.07 265.27 30.52 263.7 32.25 258.65 32.59 256.68 37.2 253.64 36.22 249.89 36.26 243.85 38.32 241.78 36.47 238.42 35.53 235.39 35.77 231.85 34.84 224.68 34.47 220.24 33.97 216.58 36.05 208.81 36.09 208.1 42.02 205.76 45.92 201.58 49.62 191.97 51.54 191.79 54.77 189.98 58.56 187.07 59.88 184.49 60.65 184.47 59.47 183.59 57.43 181.22 57.77 174.71 56.33 172.91 54.13 172.85 58.38 171.46 64.02 168.72 67.2 168.46 69.69 166.4 74.48 166.35 76.95 167.37 78.76 170.28 78.81 169.9 80.86 167.29 85.01 169.73 92.61 169.77 98.75 170.59 101.53 173.98 103.39 178.89 105 179.01 110.5 177.47 113.87 170.82 121.35 172.17 123.47 177.71 124.64 184.25 126.97 197.54 126.13 201.47 127.76 204.47 126.29 211.27 125.71 226.95 121.56 227.9 115.94 227.92 111.95 230.09 107.48 233.6 105.03 239.45 105.12 241.41 100.98 247 99.56 248.8 98.12 251.57 100.64 252.75 100.51 255.68 95.92 256.74 90.29 256.87 86.3 257.48 84.78 264.99 82.13 264.27 79.13 261.61 76.18 262.21 74.01 265.9 74.68 269.36 74.6 272.37 73.88 273.92 70.84 272.78 67.95 272.96 66.33 275.5 64.12 277.92 61.05 278.7 57.04 278.41 53.93 276.6 50.74 277.17 47.17 279.96 46.03 282.93 43.7 286.45 41.46 290.52 39.54 294.19 39.13 306.49 38.21 308.42 37.09 306.39 35.17 311 33.69 308.83 32.99 306.81 32.72"/><path class="cls-6" d="M-71,54.3l0.73-.93,1.84-.34,0.19-2.59,2.47-2-0.15-3.76L-63.43,42-62,41l2.33,2.64,2.82,0.26,7.82-3.19,4.22,0.23,5.28,4,4.41-1.07L-23.8,39l6.79-.91,4.73-1.51,2.32,2.1,6-3.58,2.83,0.58,2.79-1,3.45-.4,2.43,2L11.57,34s-0.6-6-.83-7A43.93,43.93,0,0,1,11,19.22c0.23-.69-0.92-5.77-1.39-6.92a34.78,34.78,0,0,1-.92-5.08l5.3-1-2.17-1L9.88,1.48l-2.73,1-3-.83L2.78-2.62,3.62-5.21,3.29-9.51l-2.76-2L-2.65-13.2l-1.46-1.71-0.73-1.28-1.88-1L-8.34-20l-1.88-.27-1.14,1.73-1.73,0-3,.74-1.05-.6-5.35,6.19-1.83,1.31-1.58.23-4.8,3L-33-7.89-40.54-9l-6.69,1.43L-51-6.3l-3-1-2.83-1.56h-0.87l-0.2,1L-59-8.38-60.8-9.87l-2.46-.63-1-.64-1.09-1-0.83.08-0.86.44-1.74-.53-1.66-3.75-1-.75-0.76-.32-2.26,1.1-1.84-.31-1.31-1.17-1.74-.42-1.55-4-1.3.23-1.18,1.3-1.83.45-5.63-.7-8.33-.25-1.08.87-2.91,1.42-3.23.79-5.7,3.28-5.49,3.07L-118.29-9l-2.92.35-1.73.12-3.9-1.15-3.78,1.22-2.16-.2-2.17-.63-1.19.44-1.52-1.06-1.73.23-0.42,1.19-0.42,1,0.55,0.42-0.21.33L-139-6l1,0.42-0.1,1.08L-137.6-4l1.3,0.31,0.54-.54h1.41l1.51,0.2,0.76,0.53-2.27-.09-1.95-.09-0.32.65-1.19.12L-140.62-3l-0.32.54-1.83.77,1,0.64L-141-.6l1.51-.44L-139-.73V0.57h-1.19l-1-.32L-143.4.5l-3.12.89-2.59.24-2.5-1.27,1.08-.22,0.1-.86-1.95-.2L-154-.7l-0.1.65L-152.37,1l-0.85.87-2.38,0-0.87-.53L-157.14,0l-1.62-.31-0.75.76-1.3.23-1.4.23-1.18,1.52-1.4.34-1,1.19-0.1.75-1.93,1.63-0.74,1.95,0.44,1.39-0.09,1.41-0.42.75-0.1,1.29h1.51l1.18-1.41,1.51,0.09h1.3l2.8-.89,0.33,1-0.53.87-1.19.12v0.43l-1.51.45-0.76-.1v1h0.65l0.33,0.75L-162,16l0.66,0.75-0.65.76,0.13,1.51,0.43,0.43,1.4-.66,0.33,0.42-0.42,1.08-1.07,1.3-0.76-.42-0.64.87,1.1,1.82,0.66,0.75,0.76,0.1,1.51,0.09,0.66,0.85h-1.73l-1.41-.2-1.18.66-0.12-1.4-0.44-.32-0.21.54,0.33,1.18-1.08-.32-0.44-.86,0.1-1.08-0.34-1.18-1.19-.31-0.75.22,0.45,1.72,0.87,0.42,0.55,0.75-1,1.08-0.54-.21,0.21-.65-0.87-.21-0.53,1.73,1.52,0.42,1.53,1.39,0.76,0.32,0.42-1.51h1.3l1.75,2.57,1.74,1,0.65,0.75,0.45,1.4-0.53,1.19-0.87-.42-0.54.54,1.53,1.28,0.33,1,0.11,1,1.2,1.06,0.54-.11h1.08l-0.1,1v0.86l-0.54.11-1.73.23-0.53,1.08,0.45,1.39,0.76,0.32,1.07-1.3,1-.11,1,0.42H-152l0.43-.11,0.86-1,1.3,0.1,3.13-.14,0.11,0.32-1.61.55-0.86.87-0.76-.42-0.75.55,0.55,1-0.53,1.08-1.73-.2-1.41-.09-1.51.12-1.08.87v0.86l0.54,0.32,0.53-.54,1.63,0.42,1.5-1.2,1.95-.13,0.32,0.22-1,1v1.4l0.86-.65,0.54,0.21-0.85,1.19,0.65,0.1,0.64-.65,1.29-1.41-0.34-1.72,0.85-1.19,1.2,0.74,0.76-.11,0.77,1.39,1.31,1.28,1.84-.12-0.45-1.83,1.74,0.53,0.23,1.93,2.62,2.89,2.07,1.49,2.6,0.4,1.83-.55,1.29-.55,0.63-1.51h0.65l-0.1.75h1.41l2.35-2.5,0.09-1.4,0.42-1.84,1.72-1.31,3.89,0.29,2.5,1.49,1.84,0.41,2.07,1.71,2.28,1.06,2.41,3.1,2.83,1.7,2.27-.78,1.29-.87,2.17,0.2,4.65-.37,1.06-1.84,2.16-.56,1.06-2.59,2.15-1.1,2.25-1.85,3.36,0.83,1.53,1.6L-76.15,47-75,45.87l1-1.62,2.26-1.64,1.85,1.28L-70,45.83l-2.9,2.4-0.74,2.48,0.77,1.39,0.77,1.18-0.41.83Z"/><polygon class="cls-6" points="38.34 121.75 34.55 126.58 30.2 130.34 38.98 131.33 41.45 135.37 42.14 136.75 45.05 136.36 48.82 135.85 47.05 134.16 46.85 129.97 45.75 129.34 43.94 130.25 42.62 129.31 43.45 128.1 48.27 125.63 48.23 123.91 45.5 122.89 45.04 121.6 41.33 120.29 38.34 121.75"/><polygon class="cls-6" points="124.06 172.72 124.19 170.26 123.9 169.76 124.55 167.54 123.83 166.79 121.82 168.46 119.78 169.15 114.51 175.41 113.25 177.05 108.58 180.71 108.29 182.55 108.34 184.6 107.02 183.55 104.35 185.22 91.04 184.77 89.68 186.74 85.36 187.27 83.82 186.01 82.91 183.99 81.95 184.87 80.84 183.28 79.44 183.63 79.44 183.63 79.6 186 90.48 198.47 110.57 201.89 115.93 199.51 115.81 194.34 127.73 176.08 127.46 169.41 126.37 168.78 125.14 172.87 124.06 172.72"/><polygon class="cls-6" points="306.81 32.72 298.35 34.53 297.32 32.67 297.6 31.37 289.98 36.47 281.59 40.66 277.84 40.7 276.53 39.56 275.98 35.45 277.4 32.56 277.5 28.39 276.77 27.11 274.77 28.71 274.45 25.98 275.17 25.11 274.87 23.54 272.69 22.98 269.8 21.86 266.8 24.47 266.81 25.91 265.82 28.07 265.27 30.52 263.7 32.25 258.65 32.59 256.68 37.2 253.64 36.22 249.89 36.26 243.85 38.32 241.78 36.47 238.42 35.53 235.39 35.77 231.85 34.84 224.68 34.47 220.24 33.97 216.58 36.05 208.81 36.09 208.1 42.02 205.76 45.92 201.58 49.62 191.97 51.54 191.79 54.77 189.98 58.56 187.07 59.88 184.49 60.65 184.47 59.47 183.59 57.43 181.22 57.77 174.71 56.33 172.91 54.13 172.85 58.38 171.46 64.02 168.72 67.2 168.46 69.69 166.4 74.48 166.35 76.95 167.37 78.76 170.28 78.81 169.9 80.86 167.29 85.01 169.73 92.61 169.77 98.75 170.59 101.53 173.98 103.39 178.89 105 179.01 110.5 177.47 113.87 170.82 121.35 172.17 123.47 177.71 124.64 184.25 126.97 197.54 126.13 201.47 127.76 204.47 126.29 211.27 125.71 226.95 121.56 227.9 115.94 227.92 111.95 230.09 107.48 233.6 105.03 239.45 105.12 241.41 100.98 247 99.56 248.8 98.12 251.57 100.64 252.75 100.51 255.68 95.92 256.74 90.29 256.87 86.3 257.48 84.78 264.99 82.13 264.27 79.13 261.61 76.18 262.21 74.01 265.9 74.68 269.36 74.6 272.37 73.88 273.92 70.84 272.78 67.95 272.96 66.33 275.5 64.12 277.92 61.05 278.7 57.04 278.41 53.93 276.6 50.74 277.17 47.17 279.96 46.03 282.93 43.7 286.45 41.46 290.52 39.54 294.19 39.13 306.49 38.21 308.42 37.09 306.39 35.17 311 33.69 308.83 32.99 306.81 32.72"/><path class="cls-6" d="M-71,54.3l0.73-.93,1.84-.34,0.19-2.59,2.47-2-0.15-3.76L-63.43,42-62,41l2.33,2.64,2.82,0.26,7.82-3.19,4.22,0.23,5.28,4,4.41-1.07L-23.8,39l6.79-.91,4.73-1.51,2.32,2.1,6-3.58,2.83,0.58,2.79-1,3.45-.4,2.43,2L11.57,34s-0.6-6-.83-7A43.93,43.93,0,0,1,11,19.22c0.23-.69-0.92-5.77-1.39-6.92a34.78,34.78,0,0,1-.92-5.08l5.3-1-2.17-1L9.88,1.48l-2.73,1-3-.83L2.78-2.62,3.62-5.21,3.29-9.51l-2.76-2L-2.65-13.2l-1.46-1.71-0.73-1.28-1.88-1L-8.34-20l-1.88-.27-1.14,1.73-1.73,0-3,.74-1.05-.6-5.35,6.19-1.83,1.31-1.58.23-4.8,3L-33-7.89-40.54-9l-6.69,1.43L-51-6.3l-3-1-2.83-1.56h-0.87l-0.2,1L-59-8.38-60.8-9.87l-2.46-.63-1-.64-1.09-1-0.83.08-0.86.44-1.74-.53-1.66-3.75-1-.75-0.76-.32-2.26,1.1-1.84-.31-1.31-1.17-1.74-.42-1.55-4-1.3.23-1.18,1.3-1.83.45-5.63-.7-8.33-.25-1.08.87-2.91,1.42-3.23.79-5.7,3.28-5.49,3.07L-118.29-9l-2.92.35-1.73.12-3.9-1.15-3.78,1.22-2.16-.2-2.17-.63-1.19.44-1.52-1.06-1.73.23-0.42,1.19-0.42,1,0.55,0.42-0.21.33L-139-6l1,0.42-0.1,1.08L-137.6-4l1.3,0.31,0.54-.54h1.41l1.51,0.2,0.76,0.53-2.27-.09-1.95-.09-0.32.65-1.19.12L-140.62-3l-0.32.54-1.83.77,1,0.64L-141-.6l1.51-.44L-139-.73V0.57h-1.19l-1-.32L-143.4.5l-3.12.89-2.59.24-2.5-1.27,1.08-.22,0.1-.86-1.95-.2L-154-.7l-0.1.65L-152.37,1l-0.85.87-2.38,0-0.87-.53L-157.14,0l-1.62-.31-0.75.76-1.3.23-1.4.23-1.18,1.52-1.4.34-1,1.19-0.1.75-1.93,1.63-0.74,1.95,0.44,1.39-0.09,1.41-0.42.75-0.1,1.29h1.51l1.18-1.41,1.51,0.09h1.3l2.8-.89,0.33,1-0.53.87-1.19.12v0.43l-1.51.45-0.76-.1v1h0.65l0.33,0.75L-162,16l0.66,0.75-0.65.76,0.13,1.51,0.43,0.43,1.4-.66,0.33,0.42-0.42,1.08-1.07,1.3-0.76-.42-0.64.87,1.1,1.82,0.66,0.75,0.76,0.1,1.51,0.09,0.66,0.85h-1.73l-1.41-.2-1.18.66-0.12-1.4-0.44-.32-0.21.54,0.33,1.18-1.08-.32-0.44-.86,0.1-1.08-0.34-1.18-1.19-.31-0.75.22,0.45,1.72,0.87,0.42,0.55,0.75-1,1.08-0.54-.21,0.21-.65-0.87-.21-0.53,1.73,1.52,0.42,1.53,1.39,0.76,0.32,0.42-1.51h1.3l1.75,2.57,1.74,1,0.65,0.75,0.45,1.4-0.53,1.19-0.87-.42-0.54.54,1.53,1.28,0.33,1,0.11,1,1.2,1.06,0.54-.11h1.08l-0.1,1v0.86l-0.54.11-1.73.23-0.53,1.08,0.45,1.39,0.76,0.32,1.07-1.3,1-.11,1,0.42H-152l0.43-.11,0.86-1,1.3,0.1,3.13-.14,0.11,0.32-1.61.55-0.86.87-0.76-.42-0.75.55,0.55,1-0.53,1.08-1.73-.2-1.41-.09-1.51.12-1.08.87v0.86l0.54,0.32,0.53-.54,1.63,0.42,1.5-1.2,1.95-.13,0.32,0.22-1,1v1.4l0.86-.65,0.54,0.21-0.85,1.19,0.65,0.1,0.64-.65,1.29-1.41-0.34-1.72,0.85-1.19,1.2,0.74,0.76-.11,0.77,1.39,1.31,1.28,1.84-.12-0.45-1.83,1.74,0.53,0.23,1.93,2.62,2.89,2.07,1.49,2.6,0.4,1.83-.55,1.29-.55,0.63-1.51h0.65l-0.1.75h1.41l2.35-2.5,0.09-1.4,0.42-1.84,1.72-1.31,3.89,0.29,2.5,1.49,1.84,0.41,2.07,1.71,2.28,1.06,2.41,3.1,2.83,1.7,2.27-.78,1.29-.87,2.17,0.2,4.65-.37,1.06-1.84,2.16-.56,1.06-2.59,2.15-1.1,2.25-1.85,3.36,0.83,1.53,1.6L-76.15,47-75,45.87l1-1.62,2.26-1.64,1.85,1.28L-70,45.83l-2.9,2.4-0.74,2.48,0.77,1.39,0.77,1.18-0.41.83Z"/><polygon class="cls-6" points="38.34 121.75 34.55 126.58 30.2 130.34 38.98 131.33 41.45 135.37 42.14 136.75 45.05 136.36 48.82 135.85 47.05 134.16 46.85 129.97 45.75 129.34 43.94 130.25 42.62 129.31 43.45 128.1 48.27 125.63 48.23 123.91 45.5 122.89 45.04 121.6 41.33 120.29 38.34 121.75"/><polygon class="cls-6" points="123.91 -16.35 123.31 -67.18 150.54 -73.48 170.3 -55.34 173.61 -52.7 176.5 -52.01 177.39 -49.72 179 -46.43 182.62 -45.75 192.03 -41.09 205.8 -48.68 207.25 -48.12 208.62 -40.38 218.11 -18.03 210.58 -15.13 210.45 -13.4 212.05 -12.41 216.17 -9.83 218.05 -8.98 220.78 -9.44 227.56 -9.21 235.37 -6.7 241.47 -2.16 243.05 -1.89 247.78 -4.94 248.34 -7.82 255.43 -19.66 261.2 -19.86 266.81 -21.48 270.26 -22.95 269.7 -21.08 267.4 -20.05 264.1 -18.73 262.8 -18.57 262.67 -17 263.26 -16 265.85 -16.59 268.46 -14.75 272.06 -14.78 273.49 -16.95 276.52 -16.55 276.67 -15.26 277.55 -13.83 282.17 -12.86 283.9 -13.6 288.67 -12.63 291.14 -9.5 290.57 -9.06 288.98 -9.34 285.68 -8.01 284.54 -6.42 283.53 -6.56 281.68 -3.38 280.24 -3.23 276.22 -1.89 268.87 -1.11 265.26 -1.94 264.23 -3.8 265.19 -5.42 266.7 -6.51 267.76 -7.92 267.21 -9.32 267.19 -11.26 265.9 -10.92 264.29 -9.83 261.07 -7.21 258.48 -5.79 257.18 -6 256.63 -7.07 255.44 -6.84 254.7 -5.11 255.68 -4.47 255.16 -2.53 254.19 -2.42 253.21 -3.16 250.42 -0.33 249.58 2.47 248.41 5.07 246.04 6.06 245.74 8.76 244.24 8.99 242.61 8.68 240.45 9.23 240.36 10.42 239.07 11.29 239.62 13.12 241.68 13.42 242.88 15.13 244.29 15.02 246.25 16.61 245.19 19.64 245.32 21.9 247.29 24.14 246.46 27.38 244.44 31.6 241.78 36.47 238.42 35.53 235.39 35.77 231.85 34.84 231.38 30.39 229.49 28.11 220.23 24.75 207.42 17.79 197.28 12.43 191.03 7.89 184.75 -0.82 183.87 -3.39 179.93 -8.24 179.47 -11.39 176.41 -14.81 174.83 -14.65 174.11 -13.21 172.25 -12.34 170.65 -13.33 168.64 -13.02 166.89 -14.73 164.58 -14.99 160.32 -23.86 158.28 -25.99 153.35 -28.82 151.31 -31.82 147.7 -31.79 145.38 -33.49 144.52 -32.91 145.98 -30.62 146.87 -29.05 144.99 -29.18 142.96 -30.88 141.8 -30.73 142.25 -29.15 141.84 -27.43 140.11 -27.12 139.09 -27.54 133.21 -24.48 132.38 -21.17 131.98 -17.43 133.58 -15.43 133.3 -14.86 131.12 -15.99 123.91 -16.35"/><polygon class="cls-6" points="97.02 157.6 97.65 157.04 95.7 156.87 95.82 157.3 97.02 157.6"/><polygon class="cls-6" points="120.27 157.28 120.03 156.21 119.19 157.53 116.2 159.42 116.87 160.06 119.22 158.92 122.56 158.53 125.11 156.31 125.51 154.9 123.34 154.74 121 156.08 120.27 157.28"/><polygon class="cls-6" points="75.38 178.88 76.54 178.38 78.69 179.23 81.14 177.56 81.49 174.11 79.38 171.46 80.49 168.1 79.25 165.97 76.28 163.77 75 164.45 75.03 165.64 75.7 166.7 74.81 170.49 73.17 169.55 72.7 172.8 72.54 174.52 73.44 177.22 75.38 178.88"/><path class="cls-6" d="M177.28,169l2.4-8.81,7.71-3.33,6-3-0.09-4-4,.09-1-1.12,0.22-3,0.15-6-9.32-4-2.13-4.84-5-7.43-1.35-2.12,6.65-7.48L179,110.5,178.89,105,174,103.39l-3.39-1.87-0.82-2.78,0-6.14L167.29,85l2.61-4.15,0.38-2.05-2.92,0-1-1.81,0.05-2.48,2.05-4.79,0.27-2.48L171.46,64l1.39-5.63,0.06-4.26-0.75-4.89,0.4-3.67,0-2.15L170.48,42l-6.27-.16-2.09-3.54-5-2.32-1.65-3.75-2.5-1.7-2.91.78-4.44-.07-3.59-3-2.49,0-3.15-1.8,0.53-.76-1.09-1.39-2-.85-1.08.76L132,23.75,131.26,23l-3.78.79-3,2.72-5.1-1.36-7.32,3.19L110.7,33.1l-1.18,1-0.65-.53-4.54.15-2.08,2.06,0.09,1.86,0.49,2-0.78,1-1.32.83-1.43.72-1.61-.47L98,40.85l2.17-.16-1-.78-2.07.49L93.57,42l-4.77.52-5.24,1.8H79.88L76.45,43.2,72.6,41.48l-3-2.34-1.93-.59-2.49-4L63,33.7l-3.78-.1-4-3.12-1.52-3.92,0.66-4.62-2.4.7-1.6-1.13-1.58,1L44.92,18l2.85-3.62-1.46-2.14,1.84-3L45.82,5.75l-3.31.32-5,5.21-3.45,1.32-2.72,2.18-1.64,2-3.82.1-6.22-1.67L15,10.34,14,6.18l-5.3,1a34.78,34.78,0,0,0,.92,5.08C10,13.45,11.19,18.53,11,19.22a43.93,43.93,0,0,0-.23,7.85c0.23,0.92.83,7,.83,7l4.92,7,0.94,8,1.43,1.26,1.52,0.07L23,52.18l2.14-.91,1.75,0.93-1.56,2.73,2.33,2.75,0,3.23-5.1,4,0,1.83-2.11,2.53,0.93,7.52L26.66,84l0.82,3,2.74,1.66,3.25,0.25,7.72,6.62,2,3.94-2.15,5.22,0.62,3.54,2.38-.16,0.9,1.48,0.27,7.21,5,4,1.62-.25,0-1.19,1.41,0.19-0.36-1.72,1.49-1-1.65-1.15,0.74-.66,2.94,0.79,0.18,3,0.9,1.38,1.3,0,0.35,1.18,2.18,0.49L63,120.66l2.93,0.47,1.19,4.71,2.73,1.23,1,4.83,4.7,2.26-0.33,4.43,2.59,4.46L79,145.51l3.49,1.11,3.9,0.34,4.38,2.48,0.78,1-0.95,1.31,3.52,2.61,1.18-.67,2.41,1.56,1.3-.13L99.71,157l2.1,1.78,2.46-1.24,3.59,0.89,0.14,1.29,3.15,0.47,4.71-2,1.93-.69,2.43-2.75,2.9-.92,3.87-1.06,5,1.82,2.43,2.43v5.17l2.5,5.44,4.55,0.33,2.74,1.77,5.73-.45,5.25,2.57,0.4-1.3,3.49,1.11,4.23,0.55,3,0.57,1.91-1.44,1.56,1.91,3.57,0.35,1.83,1.22,0.4-1.45Z"/><polygon class="cls-6" points="123.91 -16.35 123.31 -67.18 150.54 -73.48 170.3 -55.34 173.61 -52.7 176.5 -52.01 177.39 -49.72 179 -46.43 182.62 -45.75 192.03 -41.09 205.8 -48.68 207.25 -48.12 208.62 -40.38 218.11 -18.03 210.58 -15.13 210.45 -13.4 212.05 -12.41 216.17 -9.83 218.05 -8.98 220.78 -9.44 227.56 -9.21 235.37 -6.7 241.47 -2.16 243.05 -1.89 247.78 -4.94 248.34 -7.82 255.43 -19.66 261.2 -19.86 266.81 -21.48 270.26 -22.95 269.7 -21.08 267.4 -20.05 264.1 -18.73 262.8 -18.57 262.67 -17 263.26 -16 265.85 -16.59 268.46 -14.75 272.06 -14.78 273.49 -16.95 276.52 -16.55 276.67 -15.26 277.55 -13.83 282.17 -12.86 283.9 -13.6 288.67 -12.63 291.14 -9.5 290.57 -9.06 288.98 -9.34 285.68 -8.01 284.54 -6.42 283.53 -6.56 281.68 -3.38 280.24 -3.23 276.22 -1.89 268.87 -1.11 265.26 -1.94 264.23 -3.8 265.19 -5.42 266.7 -6.51 267.76 -7.92 267.21 -9.32 267.19 -11.26 265.9 -10.92 264.29 -9.83 261.07 -7.21 258.48 -5.79 257.18 -6 256.63 -7.07 255.44 -6.84 254.7 -5.11 255.68 -4.47 255.16 -2.53 254.19 -2.42 253.21 -3.16 250.42 -0.33 249.58 2.47 248.41 5.07 246.04 6.06 245.74 8.76 244.24 8.99 242.61 8.68 240.45 9.23 240.36 10.42 239.07 11.29 239.62 13.12 241.68 13.42 242.88 15.13 244.29 15.02 246.25 16.61 245.19 19.64 245.32 21.9 247.29 24.14 246.46 27.38 244.44 31.6 241.78 36.47 238.42 35.53 235.39 35.77 231.85 34.84 231.38 30.39 229.49 28.11 220.23 24.75 207.42 17.79 197.28 12.43 191.03 7.89 184.75 -0.82 183.87 -3.39 179.93 -8.24 179.47 -11.39 176.41 -14.81 174.83 -14.65 174.11 -13.21 172.25 -12.34 170.65 -13.33 168.64 -13.02 166.89 -14.73 164.58 -14.99 160.32 -23.86 158.28 -25.99 153.35 -28.82 151.31 -31.82 147.7 -31.79 145.38 -33.49 144.52 -32.91 145.98 -30.62 146.87 -29.05 144.99 -29.18 142.96 -30.88 141.8 -30.73 142.25 -29.15 141.84 -27.43 140.11 -27.12 139.09 -27.54 133.21 -24.48 132.38 -21.17 131.98 -17.43 133.58 -15.43 133.3 -14.86 131.12 -15.99 123.91 -16.35"/><polygon class="cls-6" points="97.02 157.6 97.65 157.04 95.7 156.87 95.82 157.3 97.02 157.6"/><polygon class="cls-6" points="120.27 157.28 120.03 156.21 119.19 157.53 116.2 159.42 116.87 160.06 119.22 158.92 122.56 158.53 125.11 156.31 125.51 154.9 123.34 154.74 121 156.08 120.27 157.28"/><polygon class="cls-6" points="75.38 178.88 76.54 178.38 78.69 179.23 81.14 177.56 81.49 174.11 79.38 171.46 80.49 168.1 79.25 165.97 76.28 163.77 75 164.45 75.03 165.64 75.7 166.7 74.81 170.49 73.17 169.55 72.7 172.8 72.54 174.52 73.44 177.22 75.38 178.88"/><path class="cls-3" d="M177.28,169l2.4-8.81,7.71-3.33,6-3-0.09-4-4,.09-1-1.12,0.22-3,0.15-6-9.32-4-2.13-4.84-5-7.43-1.35-2.12,6.65-7.48L179,110.5,178.89,105,174,103.39l-3.39-1.87-0.82-2.78,0-6.14L167.29,85l2.61-4.15,0.38-2.05-2.92,0-1-1.81,0.05-2.48,2.05-4.79,0.27-2.48L171.46,64l1.39-5.63,0.06-4.26-0.75-4.89,0.4-3.67,0-2.15L170.48,42l-6.27-.16-2.09-3.54-5-2.32-1.65-3.75-2.5-1.7-2.91.78-4.44-.07-3.59-3-2.49,0-3.15-1.8,0.53-.76-1.09-1.39-2-.85-1.08.76L132,23.75,131.26,23l-3.78.79-3,2.72-5.1-1.36-7.32,3.19L110.7,33.1l-1.18,1-0.65-.53-4.54.15-2.08,2.06,0.09,1.86,0.49,2-0.78,1-1.32.83-1.43.72-1.61-.47L98,40.85l2.17-.16-1-.78-2.07.49L93.57,42l-4.77.52-5.24,1.8H79.88L76.45,43.2,72.6,41.48l-3-2.34-1.93-.59-2.49-4L63,33.7l-3.78-.1-4-3.12-1.52-3.92,0.66-4.62-2.4.7-1.6-1.13-1.58,1L44.92,18l2.85-3.62-1.46-2.14,1.84-3L45.82,5.75l-3.31.32-5,5.21-3.45,1.32-2.72,2.18-1.64,2-3.82.1-6.22-1.67L15,10.34,14,6.18l-5.3,1a34.78,34.78,0,0,0,.92,5.08C10,13.45,11.19,18.53,11,19.22a43.93,43.93,0,0,0-.23,7.85c0.23,0.92.83,7,.83,7l4.92,7,0.94,8,1.43,1.26,1.52,0.07L23,52.18l2.14-.91,1.75,0.93-1.56,2.73,2.33,2.75,0,3.23-5.1,4,0,1.83-2.11,2.53,0.93,7.52L26.66,84l0.82,3,2.74,1.66,3.25,0.25,7.72,6.62,2,3.94-2.15,5.22,0.62,3.54,2.38-.16,0.9,1.48,0.27,7.21,5,4,1.62-.25,0-1.19,1.41,0.19-0.36-1.72,1.49-1-1.65-1.15,0.74-.66,2.94,0.79,0.18,3,0.9,1.38,1.3,0,0.35,1.18,2.18,0.49L63,120.66l2.93,0.47,1.19,4.71,2.73,1.23,1,4.83,4.7,2.26-0.33,4.43,2.59,4.46L79,145.51l3.49,1.11,3.9,0.34,4.38,2.48,0.78,1-0.95,1.31,3.52,2.61,1.18-.67,2.41,1.56,1.3-.13L99.71,157l2.1,1.78,2.46-1.24,3.59,0.89,0.14,1.29,3.15,0.47,4.71-2,1.93-.69,2.43-2.75,2.9-.92,3.87-1.06,5,1.82,2.43,2.43v5.17l2.5,5.44,4.55,0.33,2.74,1.77,5.73-.45,5.25,2.57,0.4-1.3,3.49,1.11,4.23,0.55,3,0.57,1.91-1.44,1.56,1.91,3.57,0.35,1.83,1.22,0.4-1.45Z"/><polyline class="cls-7" points="115.93 199.5 115.81 194.34 127.73 176.08"/><polyline class="cls-7" points="123.83 166.79 124.55 167.53 123.9 169.76 124.19 170.26 124.06 172.72 125.14 172.86 126.37 168.78"/><polyline class="cls-7" points="318.51 38.69 316.45 38.31 314.9 36.94 311.87 36.58 308.42 37.09 306.49 38.21 294.19 39.13 290.52 39.54 286.45 41.46 282.93 43.7 279.96 46.02 277.17 47.17 276.6 50.73 278.41 53.93 278.7 57.04 277.92 61.05 275.5 64.12 272.96 66.33 272.78 67.95 273.92 70.83 272.37 73.88 269.36 74.6 265.9 74.68 262.21 74.01 261.61 76.17 264.27 79.13 264.99 82.13 257.48 84.78 256.87 86.3 256.74 90.29 255.68 95.92 252.75 100.51 251.57 100.64 248.8 98.12 247 99.56 241.41 100.98 239.45 105.12 233.6 105.03 230.09 107.48 227.92 111.95 227.9 115.94 226.95 121.56 211.27 125.71 204.47 126.29 201.47 127.76 197.54 126.13 184.25 126.97 177.71 124.64 172.17 123.47 170.82 121.34 177.47 113.87 179.01 110.49 178.89 105 173.98 103.39 170.59 101.53 169.76 98.75 169.73 92.6 167.29 85.01 169.9 80.86 170.28 78.8 167.37 78.76 166.35 76.95 166.4 74.47 168.46 69.69 168.72 67.2 171.46 64.02 172.85 58.38 172.91 54.13"/><polyline class="cls-7" points="172.17 123.47 177.13 130.9 179.26 135.73 188.58 139.69 188.43 145.72 188.21 148.74 189.25 149.87 193.28 149.78 193.38 153.8 187.39 156.81 179.67 160.14 177.28 168.96 175.65 173.31 175.25 174.75"/><polyline class="cls-7" points="-89.11 106.33 -88.42 107.71 -85.68 114.43 -81.88 129.32 -80.56 130.37 -77.85 130.31 -68.07 132.56 -65.72 131.33 -61.29 126.27 -54.88 122.57 -51.87 117.44 -54.06 115.76 -57.29 112.06 -60.2 107.72 -60.04 105.02 -53.26 103.57 -41.8 98.79 -24.35 100.33 14.54 131.13 26.89 132.03 30.2 130.34 34.55 126.58 38.33 121.75 41.33 120.29 45.04 121.6"/><polyline class="cls-7" points="30.2 130.34 38.98 131.33 41.45 135.37 42.14 136.75 45.05 136.36 48.82 135.84"/><polyline class="cls-7" points="50.21 120.73 45.25 116.75 44.98 109.54 44.08 108.05 41.7 108.21 41.08 104.67 43.23 99.45 41.2 95.51 33.48 88.9 30.22 88.65 27.48 86.99 26.66 83.99 21.41 76.78 20.48 69.26 22.59 66.74 22.54 64.91 27.65 60.91 27.68 57.68 25.35 54.93 26.91 52.2 25.16 51.27 23.01 52.18 20.37 50.3 18.86 50.23 17.42 48.97 16.48 41.02 11.56 34.02 7.51 36.27 5.08 34.27 1.63 34.67 -1.16 35.71 -3.98 35.13 -9.96 38.71 -19.49 47.76 -17.81 55.05 -21.42 67.3 -64.14 96.28 -68.25 96.26 -73.02 90.88 -75.31 89.96 -77.2 92.37"/><polyline class="cls-7" points="-4.11 -14.91 -2.65 -13.2 0.53 -11.5 3.29 -9.52 3.62 -5.21 2.78 -2.62 4.11 1.68 7.15 2.51 9.88 1.48 11.79 5.2 13.96 6.18 15.97 5.02 18.73 7.43 21.46 6.55 24.51 8.96 24.68 11.26 25.99 13.11 29.17 14.23 29.7 16.74 31.34 14.79 34.06 12.61 32.31 10.61 33.16 9.46 31.43 8.76 31.85 7.32 31.12 6.46 29.24 6.19 27.49 4.34 27.18 1.32 27.02 -0.11 21.22 -4.08 21.2 -6.66 19.88 -8.23 17.29 -8.21 17.4 -11.8 15.96 -12.07 15.94 -13.65"/><polyline class="cls-7" points="231.85 34.84 235.39 35.77 238.42 35.53 241.78 36.47 244.44 31.6 246.46 27.38 247.29 24.14 245.32 21.9 245.19 19.64 246.25 16.61 244.29 15.01 242.88 15.13 241.68 13.42 239.62 13.12 239.07 11.29 240.36 10.42 240.45 9.23 242.61 8.68 244.24 8.98 245.74 8.76 246.04 6.06 248.41 5.07 249.58 2.47 250.42 -0.34 253.21 -3.16 254.19 -2.42 255.16 -2.53 255.68 -4.47 254.7 -5.11 255.44 -6.84 256.63 -7.07 257.18 -6 258.48 -5.79 261.06 -7.22 264.28 -9.83 265.89 -10.92 267.19 -11.26 267.21 -9.32 267.76 -7.92 266.69 -6.51 265.19 -5.42 264.23 -3.8 265.26 -1.94 268.87 -1.11 276.22 -1.9 280.24 -3.23 281.68 -3.38 283.52 -6.56 284.54 -6.43 285.68 -8.02 288.98 -9.34 290.57 -9.06 291.14 -9.5 288.67 -12.64 283.9 -13.6 282.17 -12.87 277.55 -13.83 276.67 -15.26 276.52 -16.55 273.48 -16.95 272.06 -14.78 268.46 -14.75 265.84 -16.59 263.25 -16 262.67 -17 262.8 -18.58 264.1 -18.73 267.4 -20.06 269.7 -21.08 270.26 -22.95 266.81 -21.49 261.2 -19.86 255.43 -19.66 248.34 -7.82 247.78 -4.94 243.05 -1.89 241.47 -2.16 235.37 -6.7 227.56 -9.21 220.78 -9.44 218.05 -8.98 216.16 -9.83 212.04 -12.41 210.45 -13.4 210.57 -15.13 218.11 -18.03 208.62 -40.38 207.25 -48.13 205.8 -48.69 192.03 -41.09 182.61 -45.75 179 -46.44 177.39 -49.72 176.5 -52.01 173.61 -52.7 170.3 -55.34"/><polyline class="cls-7" points="102.25 35.76 104.33 33.7 108.87 33.55 109.52 34.08 110.7 33.1 112.06 28.35 119.39 25.16 124.48 26.51 127.48 23.79 131.26 23 132.03 23.75 132.79 24.28 133.86 23.52 135.82 24.36 136.91 25.75 136.38 26.51 139.53 28.31 142.02 28.29 145.61 31.27 150.04 31.34 152.96 30.56 155.46 32.26 157.12 36.02 162.11 38.34 164.2 41.88 170.48 42.04 172.54 43.42 172.56 45.57 172.16 49.24 172.91 54.13 174.71 56.32 181.22 57.77 183.59 57.43 184.47 59.47 184.49 60.65 187.07 59.87 189.98 58.56 191.78 54.77 191.97 51.54 201.58 49.62 205.76 45.92 208.1 42.02 208.81 36.09 216.58 36.05 220.24 33.97 224.68 34.47 231.85 34.84 231.38 30.39 229.48 28.11 220.23 24.75 207.41 17.79 197.28 12.43 191.03 7.89 184.75 -0.82 183.86 -3.39 179.93 -8.24 179.47 -11.39 176.41 -14.81 174.82 -14.66 174.11 -13.21 172.25 -12.34 170.65 -13.33 168.64 -13.02 166.89 -14.73 164.58 -14.99 160.32 -23.86 158.28 -26 153.35 -28.82 151.31 -31.82 147.7 -31.79 145.38 -33.49 144.52 -32.91 145.98 -30.62 146.87 -29.05 144.99 -29.18 142.96 -30.88 141.8 -30.73 142.25 -29.15 141.84 -27.43 140.11 -27.13 139.09 -27.55 133.21 -24.48 132.37 -21.17 131.98 -17.43 133.58 -15.43 133.3 -14.86 131.12 -15.99 123.91 -16.35"/><polyline class="cls-7" points="34.06 12.61 37.51 11.29 42.51 6.07 45.82 5.75 48.16 9.18 46.31 12.21 47.77 14.35 44.92 17.97 48.71 22.53 50.29 21.51 51.89 22.64 54.28 21.94"/><polyline class="cls-7" points="72.54 174.52 73.44 177.22 75.38 178.88 76.54 178.38 78.69 179.23"/><path class="cls-7" d="M11.56,34s-0.6-6-.83-7A44.13,44.13,0,0,1,11,19.22c0.23-.69-0.92-5.77-1.38-6.92a34.72,34.72,0,0,1-.92-5.08l5.3-1,1,4.16,4.66,4.84,6.22,1.67,3.82-.11"/><polygon class="Sea-2" points="20.65 0.71 19.86 0.48 18.93 0.38 17.26 0.84 16.64 -0.33 17.12 -2.18 15.28 -3.38 14.96 -5.18 16.9 -4.7 19.43 -2.12 20.65 0.71"/><path class="Sea-2" d="M16.62,26.9l-0.83-1.21-2.5.37-0.08-1.29a7.81,7.81,0,0,1,2-1,1.84,1.84,0,0,1,1,.67l1,0.78,1-.62,0.62,1.2-1.22,1.15L18,29.73,19,29.55,21,30.67l0,2.26,1.7,1.23-0.79,1.38-2.18.7,1.05,1.21-2.18.48-1.39-.68,0-5.81-1.38-1.11,1.22-1.16-1.35-2.08Z"/><polygon class="Sea-2" points="235.76 -2.25 235.72 -0.74 234.63 -0.34 233.35 -1.23 231.8 0.02 232.19 1.75 230.91 1.29 230.3 -0.45 228.82 -1.78 226.89 -2.26 224.1 -3.19 222.36 -3.02 222.39 -4.1 224.12 -4.06 230.4 -4.11 231.44 -2.57 235.76 -2.25"/><polygon class="Sea-2" points="2.58 87.58 0.26 87.58 -0.52 89.9 0 94.28 2.58 96.85 6.18 97.37 6.7 95.57 3.09 92.99 2.58 87.58"/><polygon class="Sea-2" points="-1.29 68.52 -2.83 69.03 -3.35 75.99 -1.55 78.31 0.52 77.28 1.29 74.19 0 72.9 -1.29 68.52"/><polygon class="cls-8" points="145.15 147.92 144.96 145.22 147.47 143.09 150.95 144.64 148.25 148.5 145.15 147.92"/><polygon class="cls-8" points="172.2 106.38 174.91 101.36 176.84 102.52 172.59 106.96 172.2 106.38"/><polygon class="cls-8" points="165.37 74.44 166.4 72.38 169.24 73.15 168.21 73.93 167.44 76.5 165.37 76.5 165.37 74.44"/><polygon class="cls-8" points="41.38 114.82 38.9 116.17 37.61 113.08 26.79 112.31 21.38 109.22 22.67 106.12 29.88 107.93 33.74 105.87 28.59 98.4 30.14 96.59 36.58 107.67 34.26 109.47 39.93 110.25 41.38 114.82"/></g></g><path class="cls-9" d="M54.29,21.94l-2.4.7-1.6-1.13-1.58,1L44.92,18l2.85-3.62-1.46-2.14,1.84-3L45.82,5.75l-3.31.32-5,5.21-3.45,1.32-2.72,2.18-1.64,2-3.82.1-6.22-1.67L15,10.34,14,6.18l-5.3,1a34.78,34.78,0,0,0,.92,5.08C10,13.45,11.19,18.53,11,19.22a43.93,43.93,0,0,0-.23,7.85c0.23,0.92.83,7,.83,7l4.92,7,0.94,8,1.43,1.26,1.52,0.07L23,52.18l2.14-.91,1.75,0.93-1.56,2.73,2.33,2.75,0,3.23-5.1,4,0,1.83-2.11,2.53,0.93,7.52L26.66,84l0.82,3,2.74,1.66,3.25,0.25,7.72,6.62,2,3.94-2.15,5.22,0.62,3.54,2.38-.16,0.9,1.48,0.27,7.21,4.17,3.35"/><polyline class="cls-9" points="175.65 173.31 177.28 168.96 179.68 160.14 187.39 156.81 193.38 153.8 193.28 149.78 189.25 149.87 188.21 148.75 188.43 145.73 188.58 139.69 179.26 135.74 177.13 130.9 172.17 123.47 170.82 121.35 177.47 113.87 179.01 110.5 178.89 105 173.98 103.39 170.59 101.53 169.77 98.75 169.73 92.61 167.29 85.01 169.9 80.86 170.28 78.81 167.37 78.76 166.35 76.95 166.4 74.48 168.46 69.69 168.72 67.2 171.46 64.02 172.85 58.38 172.91 54.13 172.16 49.24 172.56 45.58 172.54 43.42 170.48 42.04 164.2 41.88 162.11 38.34 157.12 36.02 155.46 32.27 152.96 30.56 150.05 31.34 145.61 31.27 142.02 28.3 139.53 28.32 136.38 26.52 136.91 25.75 135.82 24.36 133.86 23.52 132.79 24.28 132.03 23.75 131.26 23.01 127.48 23.79 124.48 26.52 119.39 25.16 112.06 28.35 110.7 33.1 109.52 34.08 108.87 33.55 104.33 33.7 102.25 35.76"/><use width="4.82" height="4.82" transform="translate(76.94 53.41)" xlink:href="#Capital_2"/><polyline class="cls-10" points="204.9 161.07 204.95 163.88 223.62 163.88 223.56 161.07"/></svg>