<svg id="Demos" xmlns="http://www.w3.org/2000/svg" viewBox="0 0 240.68 180.01"><defs><style>.cls-1{fill:#a7a9ac;}.cls-2{fill:#fff;}</style></defs><title>Iran_demos</title><circle class="cls-1" cx="154.55" cy="48.01" r="1.78"/><path class="cls-2" d="M154.55,46.36A1.65,1.65,0,1,1,152.9,48a1.65,1.65,0,0,1,1.65-1.65m0-.25a1.9,1.9,0,1,0,1.9,1.9,1.91,1.91,0,0,0-1.9-1.9h0Z"/><circle class="cls-1" cx="147.44" cy="48.8" r="1.78"/><path class="cls-2" d="M147.44,47.14a1.65,1.65,0,1,1-1.65,1.65,1.65,1.65,0,0,1,1.65-1.65m0-.25a1.9,1.9,0,1,0,1.9,1.9,1.91,1.91,0,0,0-1.9-1.9h0Z"/><circle class="cls-1" cx="144.01" cy="59.86" r="1.78"/><path class="cls-2" d="M144,58.21a1.65,1.65,0,1,1-1.65,1.65A1.65,1.65,0,0,1,144,58.21m0-.25a1.9,1.9,0,1,0,1.9,1.9A1.91,1.91,0,0,0,144,58h0Z"/><circle class="cls-1" cx="110.89" cy="46.34" r="1.78"/><path class="cls-2" d="M110.89,44.69a1.65,1.65,0,1,1-1.65,1.65,1.65,1.65,0,0,1,1.65-1.65m0-.25a1.9,1.9,0,1,0,1.9,1.9,1.91,1.91,0,0,0-1.9-1.9h0Z"/><circle class="cls-1" cx="93.05" cy="44.34" r="1.78"/><path class="cls-2" d="M93.05,42.69a1.65,1.65,0,1,1-1.65,1.65,1.65,1.65,0,0,1,1.65-1.65m0-.25a1.9,1.9,0,1,0,1.9,1.9,1.91,1.91,0,0,0-1.9-1.9h0Z"/><circle class="cls-1" cx="72.3" cy="67.26" r="1.78"/><path class="cls-2" d="M72.3,65.61a1.65,1.65,0,1,1-1.65,1.65,1.65,1.65,0,0,1,1.65-1.65m0-.25a1.9,1.9,0,1,0,1.9,1.9,1.91,1.91,0,0,0-1.9-1.9h0Z"/><circle class="cls-1" cx="84.3" cy="91.26" r="1.78"/><path class="cls-2" d="M84.3,89.61a1.65,1.65,0,1,1-1.65,1.65,1.65,1.65,0,0,1,1.65-1.65m0-.25a1.9,1.9,0,1,0,1.9,1.9,1.91,1.91,0,0,0-1.9-1.9h0Z"/><circle class="cls-1" cx="47.05" cy="41.56" r="1.78"/><path class="cls-2" d="M47.05,39.9a1.65,1.65,0,1,1-1.65,1.65,1.65,1.65,0,0,1,1.65-1.65m0-.25a1.9,1.9,0,1,0,1.9,1.9,1.91,1.91,0,0,0-1.9-1.9h0Z"/><circle class="cls-1" cx="52.72" cy="75.68" r="1.78"/><path class="cls-2" d="M52.72,74a1.65,1.65,0,1,1-1.65,1.65A1.65,1.65,0,0,1,52.72,74m0-.25a1.9,1.9,0,1,0,1.9,1.9,1.91,1.91,0,0,0-1.9-1.9h0Z"/><circle class="cls-1" cx="48.72" cy="82.68" r="1.78"/><path class="cls-2" d="M48.72,81a1.65,1.65,0,1,1-1.65,1.65A1.65,1.65,0,0,1,48.72,81m0-.25a1.9,1.9,0,1,0,1.9,1.9,1.91,1.91,0,0,0-1.9-1.9h0Z"/><circle class="cls-1" cx="48.63" cy="70.21" r="1.78"/><path class="cls-2" d="M48.63,68.55A1.65,1.65,0,1,1,47,70.21a1.65,1.65,0,0,1,1.65-1.65m0-.25a1.9,1.9,0,1,0,1.9,1.9,1.91,1.91,0,0,0-1.9-1.9h0Z"/><circle class="cls-1" cx="54.98" cy="81.78" r="1.78"/><path class="cls-2" d="M55,80.13a1.65,1.65,0,1,1-1.65,1.65A1.65,1.65,0,0,1,55,80.13m0-.25a1.9,1.9,0,1,0,1.9,1.9,1.91,1.91,0,0,0-1.9-1.9h0Z"/><circle class="cls-1" cx="62.47" cy="98.78" r="1.78"/><path class="cls-2" d="M62.47,97.12a1.65,1.65,0,1,1-1.65,1.65,1.65,1.65,0,0,1,1.65-1.65m0-.25a1.9,1.9,0,1,0,1.9,1.9,1.91,1.91,0,0,0-1.9-1.9h0Z"/><circle class="cls-1" cx="61.16" cy="73.45" r="1.78"/><path class="cls-2" d="M61.16,71.79a1.65,1.65,0,1,1-1.65,1.65,1.65,1.65,0,0,1,1.65-1.65m0-.25a1.9,1.9,0,1,0,1.9,1.9,1.91,1.91,0,0,0-1.9-1.9h0Z"/><circle class="cls-1" cx="35.06" cy="69.66" r="1.78"/><path class="cls-2" d="M35.06,68a1.65,1.65,0,1,1-1.65,1.65A1.65,1.65,0,0,1,35.06,68m0-.25a1.9,1.9,0,1,0,1.9,1.9,1.91,1.91,0,0,0-1.9-1.9h0Z"/><circle class="cls-1" cx="51.39" cy="105.59" r="1.78"/><path class="cls-2" d="M51.39,103.94a1.65,1.65,0,1,1-1.65,1.65,1.65,1.65,0,0,1,1.65-1.65m0-.25a1.9,1.9,0,1,0,1.9,1.9,1.91,1.91,0,0,0-1.9-1.9h0Z"/><circle class="cls-1" cx="49.47" cy="64.93" r="1.78"/><path class="cls-2" d="M49.47,63.27a1.65,1.65,0,1,1-1.65,1.65,1.65,1.65,0,0,1,1.65-1.65m0-.25a1.9,1.9,0,1,0,1.9,1.9,1.91,1.91,0,0,0-1.9-1.9h0Z"/><circle class="cls-1" cx="64.8" cy="48.13" r="1.78"/><path class="cls-2" d="M64.8,46.48a1.65,1.65,0,1,1-1.65,1.65,1.65,1.65,0,0,1,1.65-1.65m0-.25a1.9,1.9,0,1,0,1.9,1.9,1.91,1.91,0,0,0-1.9-1.9h0Z"/><circle class="cls-1" cx="60.93" cy="35.63" r="1.78"/><path class="cls-2" d="M60.93,34a1.65,1.65,0,1,1-1.65,1.65A1.65,1.65,0,0,1,60.93,34m0-.25a1.9,1.9,0,1,0,1.9,1.9,1.91,1.91,0,0,0-1.9-1.9h0Z"/><circle class="cls-1" cx="81.3" cy="86.26" r="1.78"/><path class="cls-2" d="M81.3,84.61a1.65,1.65,0,1,1-1.65,1.65,1.65,1.65,0,0,1,1.65-1.65m0-.25a1.9,1.9,0,1,0,1.9,1.9,1.91,1.91,0,0,0-1.9-1.9h0Z"/><circle class="cls-1" cx="80.63" cy="94.13" r="1.78"/><path class="cls-2" d="M80.63,92.48A1.65,1.65,0,1,1,79,94.13a1.65,1.65,0,0,1,1.65-1.65m0-.25a1.9,1.9,0,1,0,1.9,1.9,1.91,1.91,0,0,0-1.9-1.9h0Z"/></svg>